<?xml version="1.0" encoding="utf-8"?>
<!-- Generator: Adobe Illustrator 16.0.0, SVG Export Plug-In . SVG Version: 6.00 Build 0)  -->
<!DOCTYPE svg PUBLIC "-//W3C//DTD SVG 1.1//EN" "http://www.w3.org/Graphics/SVG/1.1/DTD/svg11.dtd">
<svg version="1.1" id="Layer_1" xmlns="http://www.w3.org/2000/svg" xmlns:xlink="http://www.w3.org/1999/xlink" x="0px" y="0px"
	 width="48px" height="48px" viewBox="0 0 48 48" enable-background="new 0 0 48 48" xml:space="preserve">
<g id="Expanded">
	<g>
		<g>
			<path fill="#FFFFFF" d="M44,48H4c-2.206,0-4-1.794-4-4V14c0-2.206,1.794-4,4-4h20c0.552,0,1,0.448,1,1s-0.448,1-1,1H4
				c-1.103,0-2,0.897-2,2v30c0,1.104,0.897,2,2,2h40c1.104,0,2-0.896,2-2V14c0-1.103-0.896-2-2-2c-0.552,0-1-0.448-1-1s0.448-1,1-1
				c2.206,0,4,1.794,4,4v30C48,46.206,46.206,48,44,48z"/>
		</g>
		<g>
			<path fill="#FFFFFF" d="M44,44H10V14h10c0.552,0,1,0.448,1,1s-0.448,1-1,1h-8v26h30V16h-2c-0.552,0-1-0.448-1-1s0.448-1,1-1h4V44
				z"/>
		</g>
		<g>
			<path fill="#FFFFFF" d="M8,42H0V16h8V42z M2,40h4V18H2V40z"/>
		</g>
		<g>
			<path fill="#FFFFFF" d="M17.44,27.561l2.639-8.297L38.07,1.272c1.512-1.512,4.146-1.512,5.658,0c1.56,1.56,1.56,4.097,0,5.656
				L25.736,24.92L17.44,27.561z M21.838,20.333l-1.32,4.148l4.148-1.32L42.314,5.515c0.779-0.78,0.779-2.048,0-2.828
				c-0.756-0.756-2.073-0.756-2.83,0L21.838,20.333z"/>
		</g>
		<g>
			<rect x="1" y="24" fill="#FFFFFF" width="6" height="2"/>
		</g>
		<g>
			<rect x="1" y="32" fill="#FFFFFF" width="6" height="2"/>
		</g>
		<g>
			<path fill="#FFFFFF" d="M41.605,8.636c-0.256,0-0.512-0.098-0.707-0.293L36.656,4.1c-0.391-0.391-0.391-1.023,0-1.414
				s1.023-0.391,1.414,0l4.242,4.243c0.392,0.391,0.392,1.023,0,1.414C42.118,8.539,41.861,8.636,41.605,8.636z"/>
		</g>
		<g>
			<path fill="#FFFFFF" d="M35.95,14.293c-0.257,0-0.513-0.098-0.707-0.293L31,9.757c-0.391-0.391-0.391-1.023,0-1.414
				c0.391-0.391,1.023-0.391,1.414,0l4.243,4.243c0.391,0.391,0.391,1.023,0,1.414C36.461,14.195,36.206,14.293,35.95,14.293z"/>
		</g>
		<g>
			<path fill="#FFFFFF" d="M25.202,25.041c-0.257,0-0.513-0.098-0.707-0.293l-4.243-4.243c-0.391-0.391-0.391-1.023,0-1.414
				c0.391-0.391,1.023-0.391,1.414,0l4.243,4.243c0.391,0.391,0.391,1.023,0,1.414C25.713,24.943,25.458,25.041,25.202,25.041z"/>
		</g>
		<g>
			<path fill="#FFFFFF" d="M17,29c-0.256,0-0.512-0.098-0.707-0.293c-0.391-0.391-0.391-1.023,0-1.414l1.979-1.979
				c0.391-0.392,1.023-0.392,1.414,0c0.391,0.391,0.391,1.022,0,1.414l-1.979,1.979C17.512,28.902,17.256,29,17,29z"/>
		</g>
	</g>
</g>
</svg>
