<?xml version="1.0" encoding="utf-8"?>
<!-- Generator: Adobe Illustrator 16.0.0, SVG Export Plug-In . SVG Version: 6.00 Build 0)  -->
<!DOCTYPE svg PUBLIC "-//W3C//DTD SVG 1.1//EN" "http://www.w3.org/Graphics/SVG/1.1/DTD/svg11.dtd">
<svg version="1.1" id="Layer_1" xmlns="http://www.w3.org/2000/svg" xmlns:xlink="http://www.w3.org/1999/xlink" x="0px" y="0px"
	 width="48px" height="48px" viewBox="0 0 48 48" enable-background="new 0 0 48 48" xml:space="preserve">
<g id="Expanded">
	<g>
		<g>
			<path fill="#FFFFFF" d="M24.042,30c-7.145,0-12.958-6.729-12.958-15S16.896,0,24.042,0C31.188,0,37,6.729,37,15
				S31.188,30,24.042,30z M24.042,2C18,2,13.084,7.832,13.084,15S18,28,24.042,28S35,22.168,35,15S30.084,2,24.042,2z"/>
		</g>
		<g>
			<path fill="#FFFFFF" d="M47.982,48H0.019v-6.771c0-2.951,1.867-5.601,4.645-6.592L17,31.238v-4.155h2v5.679l-13.735,3.78
				c-1.913,0.687-3.247,2.579-3.247,4.687V46h43.964v-4.771c0-2.106-1.334-4-3.319-4.709L29,32.762v-5.637h2v4.113l12.266,3.375
				c2.85,1.016,4.717,3.664,4.717,6.615V48z"/>
		</g>
		<g>
			<path fill="#FFFFFF" d="M32.799,13.218c-0.068,0-0.136-0.001-0.205-0.004c-2.251-0.082-4.875-1.506-6.542-3.431
				c-1.165,1.486-2.831,2.442-4.892,2.792c-3.605,0.619-7.728-0.765-8.982-1.982l1.393-1.437c0.604,0.587,4.035,1.994,7.254,1.446
				c1.998-0.339,3.438-1.366,4.28-3.051l0.836-1.671l0.927,1.622c1.106,1.938,3.763,3.637,5.8,3.712
				c0.906,0.024,1.55-0.247,1.961-0.857l1.659,1.117C35.527,12.604,34.295,13.218,32.799,13.218z"/>
		</g>
	</g>
</g>
</svg>
